<mxfile host="app.diagrams.net" agent="Mozilla/5.0 (Windows NT 10.0; Win64; x64) AppleWebKit/537.36 (KHTML, like Gecko) Chrome/127.0.0.0 Safari/537.36 OPR/113.0.0.0" version="24.7.17" pages="2">
  <diagram name="Página-1" id="3bDCpjjWXPIM9PPxMTV1">
    <mxGraphModel dx="2970" dy="1283" grid="1" gridSize="10" guides="1" tooltips="1" connect="1" arrows="1" fold="1" page="1" pageScale="1" pageWidth="827" pageHeight="1169" math="0" shadow="0">
      <root>
        <mxCell id="0" />
        <mxCell id="1" parent="0" />
        <mxCell id="t3I8V27RZu37ZQBHBPqG-13" style="edgeStyle=orthogonalEdgeStyle;rounded=0;orthogonalLoop=1;jettySize=auto;html=1;exitX=0;exitY=0.5;exitDx=0;exitDy=0;entryX=1;entryY=0.5;entryDx=0;entryDy=0;endArrow=none;endFill=0;" edge="1" parent="1" source="t3I8V27RZu37ZQBHBPqG-1" target="t3I8V27RZu37ZQBHBPqG-12">
          <mxGeometry relative="1" as="geometry" />
        </mxCell>
        <mxCell id="t3I8V27RZu37ZQBHBPqG-27" style="rounded=0;orthogonalLoop=1;jettySize=auto;html=1;exitX=0.5;exitY=1;exitDx=0;exitDy=0;entryX=0.5;entryY=0;entryDx=0;entryDy=0;endArrow=none;endFill=0;" edge="1" parent="1" source="t3I8V27RZu37ZQBHBPqG-1" target="t3I8V27RZu37ZQBHBPqG-23">
          <mxGeometry relative="1" as="geometry" />
        </mxCell>
        <mxCell id="t3I8V27RZu37ZQBHBPqG-28" style="rounded=0;orthogonalLoop=1;jettySize=auto;html=1;exitX=0.5;exitY=1;exitDx=0;exitDy=0;entryX=1;entryY=0;entryDx=0;entryDy=0;endArrow=none;endFill=0;" edge="1" parent="1" source="t3I8V27RZu37ZQBHBPqG-1" target="t3I8V27RZu37ZQBHBPqG-22">
          <mxGeometry relative="1" as="geometry" />
        </mxCell>
        <mxCell id="t3I8V27RZu37ZQBHBPqG-29" style="rounded=0;orthogonalLoop=1;jettySize=auto;html=1;exitX=0.5;exitY=1;exitDx=0;exitDy=0;entryX=0;entryY=0;entryDx=0;entryDy=0;endArrow=none;endFill=0;" edge="1" parent="1" source="t3I8V27RZu37ZQBHBPqG-1" target="t3I8V27RZu37ZQBHBPqG-25">
          <mxGeometry relative="1" as="geometry" />
        </mxCell>
        <mxCell id="t3I8V27RZu37ZQBHBPqG-30" style="rounded=0;orthogonalLoop=1;jettySize=auto;html=1;exitX=0.5;exitY=1;exitDx=0;exitDy=0;entryX=0.5;entryY=0;entryDx=0;entryDy=0;endArrow=none;endFill=0;" edge="1" parent="1" source="t3I8V27RZu37ZQBHBPqG-1" target="t3I8V27RZu37ZQBHBPqG-26">
          <mxGeometry relative="1" as="geometry" />
        </mxCell>
        <mxCell id="t3I8V27RZu37ZQBHBPqG-31" style="rounded=0;orthogonalLoop=1;jettySize=auto;html=1;exitX=0.5;exitY=1;exitDx=0;exitDy=0;entryX=0.5;entryY=0;entryDx=0;entryDy=0;endArrow=none;endFill=0;" edge="1" parent="1" source="t3I8V27RZu37ZQBHBPqG-1" target="t3I8V27RZu37ZQBHBPqG-24">
          <mxGeometry relative="1" as="geometry" />
        </mxCell>
        <mxCell id="t3I8V27RZu37ZQBHBPqG-1" value="tb_alocacao" style="whiteSpace=wrap;html=1;align=center;" vertex="1" parent="1">
          <mxGeometry x="-52" y="210" width="110" height="40" as="geometry" />
        </mxCell>
        <mxCell id="t3I8V27RZu37ZQBHBPqG-19" style="rounded=0;orthogonalLoop=1;jettySize=auto;html=1;exitX=0.5;exitY=1;exitDx=0;exitDy=0;entryX=0.5;entryY=0;entryDx=0;entryDy=0;endArrow=none;endFill=0;" edge="1" parent="1" source="t3I8V27RZu37ZQBHBPqG-2" target="t3I8V27RZu37ZQBHBPqG-15">
          <mxGeometry relative="1" as="geometry" />
        </mxCell>
        <mxCell id="t3I8V27RZu37ZQBHBPqG-20" style="rounded=0;orthogonalLoop=1;jettySize=auto;html=1;exitX=0.5;exitY=1;exitDx=0;exitDy=0;entryX=0.5;entryY=0;entryDx=0;entryDy=0;endArrow=none;endFill=0;" edge="1" parent="1" source="t3I8V27RZu37ZQBHBPqG-2" target="t3I8V27RZu37ZQBHBPqG-16">
          <mxGeometry relative="1" as="geometry" />
        </mxCell>
        <mxCell id="t3I8V27RZu37ZQBHBPqG-21" style="rounded=0;orthogonalLoop=1;jettySize=auto;html=1;entryX=0.5;entryY=0;entryDx=0;entryDy=0;endArrow=none;endFill=0;exitX=0.5;exitY=1;exitDx=0;exitDy=0;" edge="1" parent="1" source="t3I8V27RZu37ZQBHBPqG-2" target="t3I8V27RZu37ZQBHBPqG-17">
          <mxGeometry relative="1" as="geometry" />
        </mxCell>
        <mxCell id="t3I8V27RZu37ZQBHBPqG-2" value="tb_automovel" style="whiteSpace=wrap;html=1;align=center;" vertex="1" parent="1">
          <mxGeometry x="-367" y="210" width="110" height="40" as="geometry" />
        </mxCell>
        <mxCell id="t3I8V27RZu37ZQBHBPqG-34" style="rounded=0;orthogonalLoop=1;jettySize=auto;html=1;exitX=0.5;exitY=1;exitDx=0;exitDy=0;entryX=0.5;entryY=0;entryDx=0;entryDy=0;endArrow=none;endFill=0;" edge="1" parent="1" source="t3I8V27RZu37ZQBHBPqG-3" target="t3I8V27RZu37ZQBHBPqG-32">
          <mxGeometry relative="1" as="geometry" />
        </mxCell>
        <mxCell id="t3I8V27RZu37ZQBHBPqG-35" style="rounded=0;orthogonalLoop=1;jettySize=auto;html=1;exitX=0.5;exitY=1;exitDx=0;exitDy=0;entryX=0.5;entryY=0;entryDx=0;entryDy=0;endArrow=none;endFill=0;" edge="1" parent="1" source="t3I8V27RZu37ZQBHBPqG-3" target="t3I8V27RZu37ZQBHBPqG-33">
          <mxGeometry relative="1" as="geometry" />
        </mxCell>
        <mxCell id="t3I8V27RZu37ZQBHBPqG-3" value="tb_concessionaria" style="whiteSpace=wrap;html=1;align=center;" vertex="1" parent="1">
          <mxGeometry x="241" y="210" width="110" height="40" as="geometry" />
        </mxCell>
        <mxCell id="t3I8V27RZu37ZQBHBPqG-10" value="" style="edgeStyle=orthogonalEdgeStyle;rounded=0;orthogonalLoop=1;jettySize=auto;html=1;exitX=1;exitY=0.5;exitDx=0;exitDy=0;entryX=0;entryY=0.5;entryDx=0;entryDy=0;endArrow=none;endFill=0;" edge="1" parent="1" source="t3I8V27RZu37ZQBHBPqG-1" target="t3I8V27RZu37ZQBHBPqG-8">
          <mxGeometry relative="1" as="geometry">
            <mxPoint x="58" y="230" as="sourcePoint" />
            <mxPoint x="288" y="550" as="targetPoint" />
            <Array as="points" />
          </mxGeometry>
        </mxCell>
        <mxCell id="t3I8V27RZu37ZQBHBPqG-11" style="edgeStyle=orthogonalEdgeStyle;rounded=0;orthogonalLoop=1;jettySize=auto;html=1;exitX=1;exitY=0.5;exitDx=0;exitDy=0;entryX=0;entryY=0.5;entryDx=0;entryDy=0;endArrow=none;endFill=0;" edge="1" parent="1" source="t3I8V27RZu37ZQBHBPqG-8" target="t3I8V27RZu37ZQBHBPqG-3">
          <mxGeometry relative="1" as="geometry">
            <mxPoint x="218" y="230" as="sourcePoint" />
          </mxGeometry>
        </mxCell>
        <mxCell id="t3I8V27RZu37ZQBHBPqG-8" value="POSSUI" style="shape=rhombus;perimeter=rhombusPerimeter;whiteSpace=wrap;html=1;align=center;" vertex="1" parent="1">
          <mxGeometry x="88" y="200" width="120" height="60" as="geometry" />
        </mxCell>
        <mxCell id="t3I8V27RZu37ZQBHBPqG-14" style="edgeStyle=orthogonalEdgeStyle;rounded=0;orthogonalLoop=1;jettySize=auto;html=1;exitX=0;exitY=0.5;exitDx=0;exitDy=0;entryX=1;entryY=0.5;entryDx=0;entryDy=0;endArrow=none;endFill=0;" edge="1" parent="1" target="t3I8V27RZu37ZQBHBPqG-2">
          <mxGeometry relative="1" as="geometry">
            <mxPoint x="-167" y="230" as="sourcePoint" />
          </mxGeometry>
        </mxCell>
        <mxCell id="t3I8V27RZu37ZQBHBPqG-12" value="POSSUI" style="shape=rhombus;perimeter=rhombusPerimeter;whiteSpace=wrap;html=1;align=center;" vertex="1" parent="1">
          <mxGeometry x="-212" y="200" width="120" height="60" as="geometry" />
        </mxCell>
        <mxCell id="t3I8V27RZu37ZQBHBPqG-15" value="id" style="ellipse;whiteSpace=wrap;html=1;align=center;fontStyle=4;" vertex="1" parent="1">
          <mxGeometry x="-452" y="270" width="100" height="40" as="geometry" />
        </mxCell>
        <mxCell id="t3I8V27RZu37ZQBHBPqG-16" value="modelo" style="ellipse;whiteSpace=wrap;html=1;align=center;" vertex="1" parent="1">
          <mxGeometry x="-362" y="310" width="100" height="40" as="geometry" />
        </mxCell>
        <mxCell id="t3I8V27RZu37ZQBHBPqG-17" value="preco" style="ellipse;whiteSpace=wrap;html=1;align=center;" vertex="1" parent="1">
          <mxGeometry x="-272" y="270" width="100" height="40" as="geometry" />
        </mxCell>
        <mxCell id="t3I8V27RZu37ZQBHBPqG-22" value="area" style="ellipse;whiteSpace=wrap;html=1;align=center;" vertex="1" parent="1">
          <mxGeometry x="-127" y="330" width="100" height="40" as="geometry" />
        </mxCell>
        <mxCell id="t3I8V27RZu37ZQBHBPqG-23" value="id" style="ellipse;whiteSpace=wrap;html=1;align=center;fontStyle=4;" vertex="1" parent="1">
          <mxGeometry x="-127" y="270" width="100" height="40" as="geometry" />
        </mxCell>
        <mxCell id="t3I8V27RZu37ZQBHBPqG-24" value="automovel" style="ellipse;whiteSpace=wrap;html=1;align=center;" vertex="1" parent="1">
          <mxGeometry x="-47" y="380" width="100" height="40" as="geometry" />
        </mxCell>
        <mxCell id="t3I8V27RZu37ZQBHBPqG-25" value="concessionaria" style="ellipse;whiteSpace=wrap;html=1;align=center;" vertex="1" parent="1">
          <mxGeometry x="33" y="330" width="100" height="40" as="geometry" />
        </mxCell>
        <mxCell id="t3I8V27RZu37ZQBHBPqG-26" value="quantidade" style="ellipse;whiteSpace=wrap;html=1;align=center;" vertex="1" parent="1">
          <mxGeometry x="33" y="270" width="100" height="40" as="geometry" />
        </mxCell>
        <mxCell id="t3I8V27RZu37ZQBHBPqG-32" value="id" style="ellipse;whiteSpace=wrap;html=1;align=center;fontStyle=4;" vertex="1" parent="1">
          <mxGeometry x="178" y="270" width="100" height="40" as="geometry" />
        </mxCell>
        <mxCell id="t3I8V27RZu37ZQBHBPqG-33" value="concessionaria" style="ellipse;whiteSpace=wrap;html=1;align=center;" vertex="1" parent="1">
          <mxGeometry x="314" y="270" width="100" height="40" as="geometry" />
        </mxCell>
      </root>
    </mxGraphModel>
  </diagram>
  <diagram id="XeGE4NItKTlb7k7QnCis" name="Página-2">
    <mxGraphModel dx="557" dy="334" grid="1" gridSize="10" guides="1" tooltips="1" connect="1" arrows="1" fold="1" page="1" pageScale="1" pageWidth="827" pageHeight="1169" math="0" shadow="0">
      <root>
        <mxCell id="0" />
        <mxCell id="1" parent="0" />
        <mxCell id="lThkK-aHvRCb-CMuXxWW-4" style="rounded=0;orthogonalLoop=1;jettySize=auto;html=1;exitX=0.5;exitY=1;exitDx=0;exitDy=0;entryX=0.5;entryY=0;entryDx=0;entryDy=0;endArrow=none;endFill=0;" edge="1" parent="1" source="lThkK-aHvRCb-CMuXxWW-1" target="lThkK-aHvRCb-CMuXxWW-3">
          <mxGeometry relative="1" as="geometry" />
        </mxCell>
        <mxCell id="lThkK-aHvRCb-CMuXxWW-5" style="rounded=0;orthogonalLoop=1;jettySize=auto;html=1;exitX=0.5;exitY=1;exitDx=0;exitDy=0;entryX=0.5;entryY=0;entryDx=0;entryDy=0;endArrow=none;endFill=0;" edge="1" parent="1" source="lThkK-aHvRCb-CMuXxWW-1" target="lThkK-aHvRCb-CMuXxWW-2">
          <mxGeometry relative="1" as="geometry" />
        </mxCell>
        <mxCell id="lThkK-aHvRCb-CMuXxWW-1" value="tb_clientes" style="whiteSpace=wrap;html=1;align=center;" vertex="1" parent="1">
          <mxGeometry x="350" y="200" width="100" height="40" as="geometry" />
        </mxCell>
        <mxCell id="lThkK-aHvRCb-CMuXxWW-2" value="nome" style="ellipse;whiteSpace=wrap;html=1;align=center;" vertex="1" parent="1">
          <mxGeometry x="422" y="270" width="100" height="40" as="geometry" />
        </mxCell>
        <mxCell id="lThkK-aHvRCb-CMuXxWW-3" value="id" style="ellipse;whiteSpace=wrap;html=1;align=center;fontStyle=4;" vertex="1" parent="1">
          <mxGeometry x="278" y="270" width="100" height="40" as="geometry" />
        </mxCell>
      </root>
    </mxGraphModel>
  </diagram>
</mxfile>
